<svg width="67" height="36" viewBox="0 0 67 36" fill="none" xmlns="http://www.w3.org/2000/svg">
<path d="M4.46667 27.121V8.61229C4.46814 7.51326 4.90539 6.45966 5.68252 5.68252C6.45966 4.90539 7.51326 4.46814 8.61229 4.46667H27.7966L31.2025 0H8.61229C6.32896 0.00258609 4.1399 0.910781 2.52534 2.52534C0.910781 4.1399 0.00258609 6.32896 0 8.61229V27.121C0.00258609 29.4044 0.910781 31.5934 2.52534 33.208C4.1399 34.8226 6.32896 35.7308 8.61229 35.7333H22.1309C22.0873 35.393 22.0996 35.0479 22.1672 34.7116L22.1882 34.6069L22.2175 34.505L23.1248 31.2667H8.61229C7.51326 31.2652 6.45966 30.8279 5.68252 30.0508C4.90539 29.2737 4.46814 28.2201 4.46667 27.121ZM51.6877 0H37.9192C37.9603 0.334869 37.9475 0.674145 37.8815 1.005L37.8606 1.10829L37.8313 1.21019L36.9184 4.46667H51.6877C52.7868 4.46814 53.8404 4.90539 54.6175 5.68252C55.3946 6.45966 55.8319 7.51326 55.8333 8.61229V27.121C55.8319 28.2201 55.3946 29.2737 54.6175 30.0508C53.8404 30.8279 52.7868 31.2652 51.6877 31.2667H32.2438L28.8351 35.7333H51.6877C53.971 35.7308 56.1601 34.8226 57.7747 33.208C59.3892 31.5934 60.2974 29.4044 60.3 27.121V8.61229C60.2974 6.32896 59.3892 4.1399 57.7747 2.52534C56.1601 0.910781 53.971 0.00258609 51.6877 0Z" fill="white"/>
<path d="M20.4699 23.1932C19.8506 23.1933 19.243 23.0244 18.7127 22.7046C18.1824 22.3848 17.7494 21.9263 17.4605 21.3786C17.1616 20.8167 17.022 20.1837 17.057 19.5482C17.0919 18.9128 17.3 18.2989 17.6587 17.7732L17.7019 17.7089L17.748 17.6475L25.3511 7.67709H10.2859C9.54549 7.67709 8.83542 7.97121 8.31188 8.49475C7.78834 9.01829 7.49422 9.72836 7.49422 10.4688V25.2646C7.49422 26.005 7.78834 26.7151 8.31188 27.2386C8.83542 27.7621 9.54549 28.0563 10.2859 28.0563H24.0237L25.3888 23.1904L20.4699 23.1932Z" fill="white"/>
<path d="M36.3014 21.3409L40.08 16.3871C40.1332 16.3063 40.1698 16.2156 40.1874 16.1205C40.1932 16.0901 40.1969 16.0593 40.1986 16.0284C40.2027 15.9681 40.1989 15.9076 40.1874 15.8483C40.1712 15.7617 40.139 15.6789 40.0925 15.604C40.0621 15.5553 40.0255 15.5107 39.9837 15.4714C39.9629 15.4518 39.9405 15.4341 39.9167 15.4184C39.8693 15.3849 39.817 15.359 39.7617 15.3416C39.7026 15.3229 39.6409 15.3135 39.5789 15.3137H30.9777L32.6695 9.2823L33.1203 7.6771L33.9872 4.58393L34.0583 4.3271L35.1457 0.452262C35.15 0.426895 35.1524 0.401225 35.1527 0.375491V0.353157C35.1527 0.346178 35.1527 0.316865 35.1457 0.300115C35.1387 0.283365 35.1457 0.287552 35.1457 0.280573C35.1401 0.258831 35.1321 0.237768 35.122 0.217761C35.111 0.19888 35.0989 0.180699 35.0857 0.163323L35.0731 0.149366C35.0622 0.137951 35.0505 0.127227 35.0382 0.117261L35.0243 0.106094C35.007 0.093617 34.9888 0.082422 34.9698 0.0725951C34.9515 0.0640282 34.9323 0.0574759 34.9126 0.0530535H34.8302C34.8093 0.0510004 34.7883 0.0510004 34.7674 0.0530535C34.7471 0.0577071 34.7275 0.0647338 34.7088 0.0739902L34.6907 0.0837621L34.6488 0.113073L34.6334 0.127033C34.6146 0.144137 34.5977 0.163338 34.5832 0.184262L32.0707 3.48262L30.2365 5.88624L28.8617 7.6771L19.9688 19.3393C19.9454 19.3748 19.9248 19.4122 19.9074 19.451C19.8851 19.4995 19.8687 19.5506 19.8585 19.6031C19.8465 19.6623 19.8428 19.7229 19.8474 19.7832C19.852 19.8849 19.8796 19.9843 19.9279 20.0739C19.9762 20.1636 20.0441 20.2412 20.1265 20.301C20.1507 20.3171 20.1759 20.3315 20.2019 20.3443C20.2841 20.3841 20.3744 20.4046 20.4657 20.4043H29.0668L24.9045 35.2588C24.9025 35.2848 24.9025 35.3109 24.9045 35.3369V35.3579C24.9058 35.3758 24.9086 35.3935 24.9128 35.4109C24.912 35.4174 24.912 35.424 24.9128 35.4305C24.9184 35.4522 24.9264 35.4733 24.9366 35.4933C24.9475 35.5117 24.9597 35.5294 24.9729 35.5463L24.9854 35.5603L25.0203 35.5938C25.0256 35.5967 25.0303 35.6005 25.0343 35.6049C25.0513 35.6175 25.0695 35.6282 25.0887 35.637C25.1073 35.645 25.1264 35.6515 25.1459 35.6566H25.1641C25.1794 35.6579 25.1948 35.6579 25.2102 35.6566H25.2283C25.2495 35.6559 25.2705 35.653 25.2911 35.6482C25.3109 35.6428 25.3301 35.6354 25.3483 35.6259L25.3665 35.6161L25.4084 35.5868L25.4237 35.5742C25.4426 35.5571 25.4594 35.5379 25.474 35.517L28.729 31.2667L31.1759 28.0563L36.3014 21.3409Z" fill="white"/>
<path d="M42.3635 17.9965L42.2993 18.0802L34.6878 28.0563H50.0141C50.7545 28.0563 51.4646 27.7621 51.9881 27.2386C52.5116 26.7151 52.8058 26.005 52.8058 25.2646V10.4688C52.8058 9.72836 52.5116 9.01829 51.9881 8.49475C51.4646 7.97121 50.7545 7.67709 50.0141 7.67709H36.0195L34.6599 12.5248H39.5788C40.1923 12.5241 40.7946 12.6894 41.3217 13.0032C41.8488 13.317 42.2812 13.7676 42.5729 14.3073C42.8762 14.8642 43.0233 15.4928 42.9987 16.1264C42.9742 16.7601 42.7788 17.3754 42.4333 17.9072L42.3635 17.9965ZM64.7667 10.4227C64.1743 10.4227 63.6063 10.658 63.1875 11.0768C62.7686 11.4957 62.5333 12.0637 62.5333 12.656V23.0773C62.5333 23.6696 62.7686 24.2377 63.1875 24.6565C63.6063 25.0754 64.1743 25.3107 64.7667 25.3107C65.359 25.3107 65.927 25.0754 66.3459 24.6565C66.7647 24.2377 67 23.6696 67 23.0773V12.656C67 12.0637 66.7647 11.4957 66.3459 11.0768C65.927 10.658 65.359 10.4227 64.7667 10.4227Z" fill="white"/>
</svg>
