<svg id="visual" viewBox="0 0 960 540" width="960" height="540" xmlns="http://www.w3.org/2000/svg" xmlns:xlink="http://www.w3.org/1999/xlink" version="1.1"><rect x="0" y="0" width="960" height="540" fill="#2e2e2f"></rect><defs><linearGradient id="grad1_0" x1="43.8%" y1="100%" x2="100%" y2="0%"><stop offset="14.444444444444446%" stop-color="#2e2e2f" stop-opacity="1"></stop><stop offset="85.55555555555554%" stop-color="#2e2e2f" stop-opacity="1"></stop></linearGradient></defs><defs><linearGradient id="grad2_0" x1="0%" y1="100%" x2="56.3%" y2="0%"><stop offset="14.444444444444446%" stop-color="#2e2e2f" stop-opacity="1"></stop><stop offset="85.55555555555554%" stop-color="#2e2e2f" stop-opacity="1"></stop></linearGradient></defs><g transform="translate(960, 540)"><path d="M-459 0C-428.1 -68.9 -397.3 -137.9 -362.9 -209.5C-328.5 -281.1 -290.6 -355.5 -229.5 -397.5C-168.4 -439.5 -84.2 -449.3 0 -459L0 0Z" fill="#161616"></path></g><g transform="translate(0, 0)"><path d="M459 0C450.2 85.8 441.4 171.7 397.5 229.5C353.6 287.3 274.6 317.2 202.5 350.7C130.4 384.3 65.2 421.7 0 459L0 0Z" fill="#161616"></path></g></svg>