<?xml version="1.0" standalone="no"?>
<svg xmlns:xlink="http://www.w3.org/1999/xlink" id="wave" style="transform:rotate(0deg); transition: 0.3s" viewBox="0 0 1440 490" version="1.1" xmlns="http://www.w3.org/2000/svg">
    <defs>
        <linearGradient id="sw-gradient-0" x1="0" x2="0" y1="1" y2="0">
            <stop stop-color="rgba(46, 46, 47, 0.61)" offset="0%"/>
            <stop stop-color="rgba(141.481, 47.976, 47.976, 1)" offset="100%"/>
        </linearGradient>
    </defs>
    <path style="transform:translate(0, 0px); opacity:1; stroke: #5d2221; stroke-width: 4" fill="url(#sw-gradient-0)" d="M0,98L26.7,155.2C53.3,212,107,327,160,310.3C213.3,294,267,147,320,114.3C373.3,82,427,163,480,236.8C533.3,310,587,376,640,392C693.3,408,747,376,800,310.3C853.3,245,907,147,960,147C1013.3,147,1067,245,1120,277.7C1173.3,310,1227,278,1280,277.7C1333.3,278,1387,310,1440,343C1493.3,376,1547,408,1600,375.7C1653.3,343,1707,245,1760,179.7C1813.3,114,1867,82,1920,73.5C1973.3,65,2027,82,2080,106.2C2133.3,131,2187,163,2240,171.5C2293.3,180,2347,163,2400,130.7C2453.3,98,2507,49,2560,98C2613.3,147,2667,294,2720,310.3C2773.3,327,2827,212,2880,163.3C2933.3,114,2987,131,3040,179.7C3093.3,229,3147,310,3200,318.5C3253.3,327,3307,261,3360,196C3413.3,131,3467,65,3520,81.7C3573.3,98,3627,196,3680,228.7C3733.3,261,3787,229,3813,212.3L3840,196L3840,490L3813.3,490C3786.7,490,3733,490,3680,490C3626.7,490,3573,490,3520,490C3466.7,490,3413,490,3360,490C3306.7,490,3253,490,3200,490C3146.7,490,3093,490,3040,490C2986.7,490,2933,490,2880,490C2826.7,490,2773,490,2720,490C2666.7,490,2613,490,2560,490C2506.7,490,2453,490,2400,490C2346.7,490,2293,490,2240,490C2186.7,490,2133,490,2080,490C2026.7,490,1973,490,1920,490C1866.7,490,1813,490,1760,490C1706.7,490,1653,490,1600,490C1546.7,490,1493,490,1440,490C1386.7,490,1333,490,1280,490C1226.7,490,1173,490,1120,490C1066.7,490,1013,490,960,490C906.7,490,853,490,800,490C746.7,490,693,490,640,490C586.7,490,533,490,480,490C426.7,490,373,490,320,490C266.7,490,213,490,160,490C106.7,490,53,490,27,490L0,490Z"/>
</svg>