<?xml version="1.0" standalone="no"?>
<svg xmlns:xlink="http://www.w3.org/1999/xlink" id="wave" style="transform:rotate(0deg); transition: 0.3s" viewBox="0 0 1440 490" version="1.1" xmlns="http://www.w3.org/2000/svg"><defs><linearGradient id="sw-gradient-0" x1="0" x2="0" y1="1" y2="0"><stop stop-color="rgba(46, 46, 47, 0.61)" offset="0%"/><stop stop-color="rgba(76, 175, 68, 1)" offset="100%"/></linearGradient></defs><path style="transform:translate(0, 0px); opacity:1; stroke: #4caf44; stroke-width: 4" fill="url(#sw-gradient-0)" d="M0,98L26.7,106.2C53.3,114,107,131,160,163.3C213.3,196,267,245,320,253.2C373.3,261,427,229,480,196C533.3,163,587,131,640,163.3C693.3,196,747,294,800,318.5C853.3,343,907,294,960,269.5C1013.3,245,1067,245,1120,236.8C1173.3,229,1227,212,1280,245C1333.3,278,1387,359,1440,383.8C1493.3,408,1547,376,1600,351.2C1653.3,327,1707,310,1760,277.7C1813.3,245,1867,196,1920,179.7C1973.3,163,2027,180,2080,171.5C2133.3,163,2187,131,2240,147C2293.3,163,2347,229,2400,261.3C2453.3,294,2507,294,2560,245C2613.3,196,2667,98,2720,89.8C2773.3,82,2827,163,2880,212.3C2933.3,261,2987,278,3040,236.8C3093.3,196,3147,98,3200,81.7C3253.3,65,3307,131,3360,163.3C3413.3,196,3467,196,3520,196C3573.3,196,3627,196,3680,163.3C3733.3,131,3787,65,3813,32.7L3840,0L3840,490L3813.3,490C3786.7,490,3733,490,3680,490C3626.7,490,3573,490,3520,490C3466.7,490,3413,490,3360,490C3306.7,490,3253,490,3200,490C3146.7,490,3093,490,3040,490C2986.7,490,2933,490,2880,490C2826.7,490,2773,490,2720,490C2666.7,490,2613,490,2560,490C2506.7,490,2453,490,2400,490C2346.7,490,2293,490,2240,490C2186.7,490,2133,490,2080,490C2026.7,490,1973,490,1920,490C1866.7,490,1813,490,1760,490C1706.7,490,1653,490,1600,490C1546.7,490,1493,490,1440,490C1386.7,490,1333,490,1280,490C1226.7,490,1173,490,1120,490C1066.7,490,1013,490,960,490C906.7,490,853,490,800,490C746.7,490,693,490,640,490C586.7,490,533,490,480,490C426.7,490,373,490,320,490C266.7,490,213,490,160,490C106.7,490,53,490,27,490L0,490Z"/></svg>