<?xml version="1.0" standalone="no"?>
<svg xmlns:xlink="http://www.w3.org/1999/xlink" id="wave" style="transform:rotate(0deg); transition: 0.3s" viewBox="0 0 1440 490" version="1.1" xmlns="http://www.w3.org/2000/svg"><defs><linearGradient id="sw-gradient-0" x1="0" x2="0" y1="1" y2="0"><stop stop-color="rgba(46, 46, 47, 0.61)" offset="0%"/><stop stop-color="rgba(111, 160, 187, 1)" offset="100%"/></linearGradient></defs><path style="transform:translate(0, 0px); opacity:1; stroke: #6da1bc; stroke-width: 4" fill="url(#sw-gradient-0)" d="M0,196L26.7,220.5C53.3,245,107,294,160,318.5C213.3,343,267,343,320,351.2C373.3,359,427,376,480,359.3C533.3,343,587,294,640,277.7C693.3,261,747,278,800,245C853.3,212,907,131,960,81.7C1013.3,33,1067,16,1120,57.2C1173.3,98,1227,196,1280,196C1333.3,196,1387,98,1440,106.2C1493.3,114,1547,229,1600,302.2C1653.3,376,1707,408,1760,359.3C1813.3,310,1867,180,1920,138.8C1973.3,98,2027,147,2080,187.8C2133.3,229,2187,261,2240,261.3C2293.3,261,2347,229,2400,196C2453.3,163,2507,131,2560,114.3C2613.3,98,2667,98,2720,138.8C2773.3,180,2827,261,2880,318.5C2933.3,376,2987,408,3040,392C3093.3,376,3147,310,3200,269.5C3253.3,229,3307,212,3360,236.8C3413.3,261,3467,327,3520,343C3573.3,359,3627,327,3680,310.3C3733.3,294,3787,294,3813,294L3840,294L3840,490L3813.3,490C3786.7,490,3733,490,3680,490C3626.7,490,3573,490,3520,490C3466.7,490,3413,490,3360,490C3306.7,490,3253,490,3200,490C3146.7,490,3093,490,3040,490C2986.7,490,2933,490,2880,490C2826.7,490,2773,490,2720,490C2666.7,490,2613,490,2560,490C2506.7,490,2453,490,2400,490C2346.7,490,2293,490,2240,490C2186.7,490,2133,490,2080,490C2026.7,490,1973,490,1920,490C1866.7,490,1813,490,1760,490C1706.7,490,1653,490,1600,490C1546.7,490,1493,490,1440,490C1386.7,490,1333,490,1280,490C1226.7,490,1173,490,1120,490C1066.7,490,1013,490,960,490C906.7,490,853,490,800,490C746.7,490,693,490,640,490C586.7,490,533,490,480,490C426.7,490,373,490,320,490C266.7,490,213,490,160,490C106.7,490,53,490,27,490L0,490Z"/></svg>