<svg width="53" height="53" viewBox="0 0 53 53" fill="none" xmlns="http://www.w3.org/2000/svg">
<path d="M51 26.5C51 12.974 40.026 2 26.5 2C12.974 2 2 12.974 2 26.5C2 40.026 12.974 51 26.5 51C40.026 51 51 40.026 51 26.5Z" stroke="black" stroke-width="4" stroke-miterlimit="10"/>
<path d="M26.5 39.7708C26.0903 39.7705 25.6901 39.6469 25.3516 39.4161C20.3367 36.0116 18.1649 33.6739 16.968 32.2179C14.4159 29.1082 13.1935 25.9143 13.2292 22.4562C13.2687 18.4928 16.4474 15.2682 20.315 15.2682C22.9182 15.2682 24.7812 16.6247 25.9424 17.8727C26.0139 17.9483 26.1002 18.0086 26.1959 18.0498C26.2915 18.091 26.3946 18.1123 26.4987 18.1123C26.6029 18.1123 26.706 18.091 26.8016 18.0498C26.8973 18.0086 26.9835 17.9483 27.0551 17.8727C28.2176 16.6247 30.0793 15.2682 32.6824 15.2682C36.5501 15.2682 39.7287 18.4928 39.7683 22.4562C39.804 25.9143 38.5803 29.1082 36.0295 32.2179C34.8326 33.6777 32.6607 36.0116 27.6459 39.4161C27.3081 39.6464 26.9089 39.77 26.5 39.7708Z" fill="black"/>
</svg>