<svg width="55" height="55" viewBox="0 0 55 55" fill="none" xmlns="http://www.w3.org/2000/svg">
<path d="M49.7191 39.2268C48.8769 38.4484 47.6391 38.257 46.58 38.0784C45.1126 37.8359 44.5511 37.568 43.6962 36.8023C41.8714 35.1818 41.8714 32.8339 43.6962 31.2133L47.5626 27.7807C53.4834 22.549 53.4834 13.974 47.5626 8.74219C43.1985 4.9013 37.3415 3 31.2548 3C24.1472 3 16.7206 5.59036 10.9912 10.669C0.336263 20.0862 0.336263 35.5135 10.9912 44.9307C16.2868 49.6138 23.4326 51.949 30.5019 52H30.7188C37.7881 52 44.7553 49.7159 49.7063 45.3135C51.5438 43.693 51.2363 40.6432 49.7191 39.2268Z" stroke="black" stroke-width="5" stroke-miterlimit="10"/>
<path d="M13.2103 25.4583C15.4654 25.4583 17.2936 23.6302 17.2936 21.375C17.2936 19.1198 15.4654 17.2917 13.2103 17.2917C10.9551 17.2917 9.12692 19.1198 9.12692 21.375C9.12692 23.6302 10.9551 25.4583 13.2103 25.4583Z" fill="black"/>
<path d="M14.2311 38.6016C16.4862 38.6016 18.3144 36.7734 18.3144 34.5182C18.3144 32.2631 16.4862 30.4349 14.2311 30.4349C11.9759 30.4349 10.1477 32.2631 10.1477 34.5182C10.1477 36.7734 11.9759 38.6016 14.2311 38.6016Z" fill="black"/>
<path d="M23.4186 17.2917C25.6737 17.2917 27.5019 15.4635 27.5019 13.2084C27.5019 10.9532 25.6737 9.12503 23.4186 9.12503C21.1634 9.12503 19.3352 10.9532 19.3352 13.2084C19.3352 15.4635 21.1634 17.2917 23.4186 17.2917Z" fill="black"/>
<path d="M27.5019 47.7891C30.8847 47.7891 33.6269 45.0468 33.6269 41.6641C33.6269 38.2813 30.8847 35.5391 27.5019 35.5391C24.1192 35.5391 21.3769 38.2813 21.3769 41.6641C21.3769 45.0468 24.1192 47.7891 27.5019 47.7891Z" fill="black"/>
<path d="M36.6894 17.2917C38.9446 17.2917 40.7727 15.4635 40.7727 13.2084C40.7727 10.9532 38.9446 9.12503 36.6894 9.12503C34.4342 9.12503 32.6061 10.9532 32.6061 13.2084C32.6061 15.4635 34.4342 17.2917 36.6894 17.2917Z" fill="black"/>
</svg>
