<svg width="39" height="53" viewBox="0 0 39 53" fill="none" xmlns="http://www.w3.org/2000/svg">
<path d="M36.5675 33.6959C36.5675 44.3026 29.8904 50.9796 19.2837 50.9796C8.67704 50.9796 2 44.3026 2 33.6959C2 22.3138 14.3903 6.94808 18.1903 2.50352C18.3255 2.34561 18.4933 2.21884 18.6822 2.13192C18.871 2.045 19.0764 2 19.2843 2C19.4922 2 19.6977 2.045 19.8865 2.13192C20.0754 2.21884 20.2432 2.34561 20.3784 2.50352C24.1772 6.94808 36.5675 22.3138 36.5675 33.6959Z" stroke="black" stroke-width="4" stroke-miterlimit="10"/>
<path d="M29.846 34.6561C29.846 36.948 28.9356 39.1461 27.3149 40.7668C25.6942 42.3875 23.4961 43.2979 21.2042 43.2979" stroke="black" stroke-width="4" stroke-linecap="round" stroke-linejoin="round"/>
</svg>
